<svg xmlns="http://www.w3.org/2000/svg" width="41" height="31" viewBox="0 0 41 31">
  <defs>
    <style>
      .cls-1 {
        fill: #fff;
      }
    </style>
  </defs>
  <path id="形狀_1213" data-name="形狀 1213" class="cls-1" d="M35.8,31s-6.836-.01-13.676-.037c-3.422-.014-6.844-.032-9.411-.055-1.288-.012-2.363-.025-3.115-.04a8.255,8.255,0,0,1-1.442-.1l0,.023A10.555,10.555,0,0,1,8.01,10.267,15.419,15.419,0,0,1,22.413,0,15.431,15.431,0,0,1,37.72,15.519a15.64,15.64,0,0,1-.573,4.21,5.831,5.831,0,0,1-1.17,11.259L35.891,31ZM10.365,11.869l-.248.845-.86.13a7.771,7.771,0,0,0-.564,15.228c1.451.088,16.817.142,27.022.157a3.048,3.048,0,0,0-.393-6.055l-1.981-.04.74-1.863a12.829,12.829,0,0,0,.907-4.752,12.554,12.554,0,0,0-24.622-3.651ZM8.775,28.09l-.015,0Zm10.9-2.871V16.451L17.1,19.228l-1.423-1.462,4-4.362v-.046h.043l1.323-1.443,1.323,1.443h.044v.049l4,4.359-1.423,1.462-2.576-2.776v8.766Z"/>
</svg>
