<svg xmlns="http://www.w3.org/2000/svg" width="32" height="7" viewBox="0 0 32 7">
  <defs>
    <style>
      .cls-1 {
        fill: #fff;
      }
    </style>
  </defs>
  <path id="形狀_1213" data-name="形狀 1213" class="cls-1" d="M1598.679,748a3.3,3.3,0,0,0-2.955,1.909h-6.769a3.242,3.242,0,0,0-5.91,0h-6.769a3.3,3.3,0,0,0-2.955-1.909,3.5,3.5,0,0,0,0,7,3.352,3.352,0,0,0,3.193-2.545h6.294a3.275,3.275,0,0,0,6.385,0h6.294a3.352,3.352,0,0,0,3.192,2.545,3.5,3.5,0,0,0,0-7Z" transform="translate(-1570 -748)"/>
</svg>
