<svg xmlns="http://www.w3.org/2000/svg" width="33.136" height="32.102" viewBox="0 0 33.136 32.102">
  <defs>
    <style>
      .cls-1 {
        fill: #fff;
      }
    </style>
  </defs>
  <path id="形狀_1214" data-name="形狀 1214" class="cls-1" d="M2.965,32.1A3,3,0,0,1,0,29.078V5.165A3,3,0,0,1,2.965,2.14H6.079V1.223a1.2,1.2,0,1,1,2.4,0V2.14H24.659V1.223a1.2,1.2,0,1,1,2.4,0V2.14h3.115a3,3,0,0,1,2.965,3.025V29.078A3,3,0,0,1,30.172,32.1ZM3,29.078l27.142-.033V13.452H2.976ZM2.965,5.2l.008,5.81H30.139V5.165l-3.082,0V7.032a1.2,1.2,0,1,1-2.4,0V5.171l-16.182.02V7.032a1.2,1.2,0,1,1-2.4,0V5.194Zm19.6,21.4a3.67,3.67,0,0,1,0-7.338h1.2a3.67,3.67,0,0,1,0,7.338Z"/>
</svg>
