<svg xmlns="http://www.w3.org/2000/svg" width="32.63" height="31.58" viewBox="0 0 32.63 31.58">
  <defs>
    <style>
      .cls-1 {
        fill: #fff;
      }
    </style>
  </defs>
  <path id="形狀_1213" data-name="形狀 1213" class="cls-1" d="M25.809,28.2a3.41,3.41,0,1,1,3.41,3.38A3.4,3.4,0,0,1,25.809,28.2Zm-12.9,0a3.41,3.41,0,1,1,3.41,3.38A3.4,3.4,0,0,1,12.91,28.2ZM0,28.2a3.41,3.41,0,1,1,3.41,3.38A3.395,3.395,0,0,1,0,28.2ZM25.809,15.79a3.41,3.41,0,1,1,3.41,3.38A3.4,3.4,0,0,1,25.809,15.79Zm-12.9,0a3.41,3.41,0,1,1,3.41,3.38A3.4,3.4,0,0,1,12.91,15.79ZM0,15.79a3.41,3.41,0,1,1,3.41,3.38A3.395,3.395,0,0,1,0,15.79ZM25.809,3.38a3.41,3.41,0,1,1,3.41,3.379A3.4,3.4,0,0,1,25.809,3.38Zm-12.9,0A3.41,3.41,0,1,1,16.32,6.76,3.4,3.4,0,0,1,12.91,3.38ZM0,3.38A3.41,3.41,0,1,1,3.41,6.76,3.395,3.395,0,0,1,0,3.38Z"/>
</svg>
